<svg xmlns="http://www.w3.org/2000/svg" xmlns:xlink="http://www.w3.org/1999/xlink" width="58" height="58" viewBox="0 0 58 58"><defs><path id="t5jma" d="M711.03 771.4a.97.97 0 0 1-.96-.97v-12.98l-10.78 10.78c.83.91 1.6 1.88 2.3 2.9l.02-.01.42.66.1.17a26.1 26.1 0 1 1-7.31-7.6l-1.38 1.38a24.1 24.1 0 0 0-13.34-4.01 24.12 24.12 0 0 0-24.17 24.17c0 .35.04.69.06 1.03L668 774.9a.97.97 0 0 1 1.37 0l10.25 10.25 29.22-29.22h-13.28a.97.97 0 0 1 0-1.93h15.46c.54 0 .97.43.97.96v15.47c0 .54-.43.97-.97.97z"/></defs><g><g transform="translate(-654 -754)"><use fill="#add136" xlink:href="#t5jma"/></g></g></svg>